<?xml version="1.0" encoding="UTF-8"?>
<!DOCTYPE svg PUBLIC "-//W3C//DTD SVG 1.1//EN" "http://www.w3.org/Graphics/SVG/1.1/DTD/svg11.dtd">
<svg xmlns="http://www.w3.org/2000/svg" version="1.1" width="432px" height="66px" style="shape-rendering:geometricPrecision; text-rendering:geometricPrecision; image-rendering:optimizeQuality; fill-rule:evenodd; clip-rule:evenodd" xmlns:xlink="http://www.w3.org/1999/xlink">
<g><path style="opacity:0.979" fill="#fafafa" d="M 12.5,0.5 C 21.5062,0.333562 30.5062,0.500228 39.5,1C 43.6667,2.5 46.5,5.33333 48,9.5C 48.4999,21.8288 48.6665,34.1622 48.5,46.5C 46.1667,46.5 43.8333,46.5 41.5,46.5C 41.5,42.1667 41.5,37.8333 41.5,33.5C 30.8333,33.5 20.1667,33.5 9.5,33.5C 9.5,37.8333 9.5,42.1667 9.5,46.5C 7.16667,46.5 4.83333,46.5 2.5,46.5C 2.33346,34.4954 2.50013,22.4954 3,10.5C 4.3499,5.31928 7.51656,1.98594 12.5,0.5 Z M 14.5,7.5 C 22.9433,7.06187 31.2767,7.56187 39.5,9C 40.1258,9.75044 40.6258,10.5838 41,11.5C 41.4993,16.4889 41.6659,21.4889 41.5,26.5C 30.8333,26.5 20.1667,26.5 9.5,26.5C 9.33418,21.8215 9.50085,17.1548 10,12.5C 11.025,10.313 12.525,8.64638 14.5,7.5 Z"/></g>
<g><path style="opacity:0.93" fill="#fbfbfb" d="M 63.5,0.5 C 73.5797,0.0765905 83.5797,0.57659 93.5,2C 97.783,5.06526 100.116,9.23192 100.5,14.5C 98.076,14.8076 95.7427,14.4742 93.5,13.5C 92.6994,10.8666 91.0327,9.03329 88.5,8C 80.8333,7.33333 73.1667,7.33333 65.5,8C 63.6667,8.5 62.5,9.66667 62,11.5C 61.3333,19.8333 61.3333,28.1667 62,36.5C 62.8333,37.3333 63.6667,38.1667 64.5,39C 72.8333,39.6667 81.1667,39.6667 89.5,39C 91.3028,37.738 92.6361,36.0713 93.5,34C 95.8098,33.5034 98.1432,33.3367 100.5,33.5C 100.314,39.7096 97.3139,43.8763 91.5,46C 81.8333,46.6667 72.1667,46.6667 62.5,46C 57.3057,43.4671 54.4724,39.3004 54,33.5C 53.3333,26.8333 53.3333,20.1667 54,13.5C 54.6979,7.30997 57.8646,2.97664 63.5,0.5 Z"/></g>
<g><path style="opacity:0.937" fill="#fcfcfc" d="M 114.5,0.5 C 123.506,0.333562 132.506,0.500228 141.5,1C 146.605,2.68565 149.771,6.18565 151,11.5C 151.5,23.1619 151.667,34.8286 151.5,46.5C 149.167,46.5 146.833,46.5 144.5,46.5C 144.5,42.1667 144.5,37.8333 144.5,33.5C 133.833,33.5 123.167,33.5 112.5,33.5C 112.5,37.8333 112.5,42.1667 112.5,46.5C 109.833,46.5 107.167,46.5 104.5,46.5C 104.102,33.7808 104.602,21.1142 106,8.5C 108.074,4.92315 110.907,2.25648 114.5,0.5 Z M 116.5,7.5 C 124.943,7.06187 133.277,7.56187 141.5,9C 142.893,10.1711 143.727,11.6711 144,13.5C 144.499,17.8206 144.666,22.1539 144.5,26.5C 133.833,26.5 123.167,26.5 112.5,26.5C 112.334,21.4889 112.501,16.4889 113,11.5C 113.69,9.64977 114.856,8.31643 116.5,7.5 Z"/></g>
<g><path style="opacity:0.965" fill="#fbfbfb" d="M 157.5,0.5 C 169.505,0.333462 181.505,0.500129 193.5,1C 198.667,2.16667 201.833,5.33333 203,10.5C 203.667,19.5 203.667,28.5 203,37.5C 201.5,41.6667 198.667,44.5 194.5,46C 182.171,46.4999 169.838,46.6665 157.5,46.5C 157.5,31.1667 157.5,15.8333 157.5,0.5 Z M 164.5,7.5 C 173.839,7.33355 183.173,7.50021 192.5,8C 193.667,9.16667 194.833,10.3333 196,11.5C 196.667,19.5 196.667,27.5 196,35.5C 195.626,36.4162 195.126,37.2496 194.5,38C 184.605,39.4495 174.605,39.9495 164.5,39.5C 164.5,28.8333 164.5,18.1667 164.5,7.5 Z"/></g>
<g><path style="opacity:0.947" fill="#fcfcfc" d="M 208.5,0.5 C 224.167,0.5 239.833,0.5 255.5,0.5C 255.5,2.83333 255.5,5.16667 255.5,7.5C 242.167,7.5 228.833,7.5 215.5,7.5C 215.203,11.7675 215.536,15.9341 216.5,20C 227.161,20.4998 237.828,20.6665 248.5,20.5C 248.5,22.8333 248.5,25.1667 248.5,27.5C 237.5,27.5 226.5,27.5 215.5,27.5C 215.5,31.5 215.5,35.5 215.5,39.5C 228.833,39.5 242.167,39.5 255.5,39.5C 255.5,41.8333 255.5,44.1667 255.5,46.5C 239.833,46.5 224.167,46.5 208.5,46.5C 208.5,31.1667 208.5,15.8333 208.5,0.5 Z"/></g>
<g><path style="opacity:0.943" fill="#fbfbfb" d="M 259.5,0.5 C 262.247,0.186646 264.914,0.519979 267.5,1.5C 273.667,10.5 279.833,19.5 286,28.5C 292.5,19.3333 299,10.1667 305.5,1C 307.81,0.503354 310.143,0.336688 312.5,0.5C 312.5,15.8333 312.5,31.1667 312.5,46.5C 310.167,46.5 307.833,46.5 305.5,46.5C 305.667,35.8281 305.5,25.1615 305,14.5C 299.027,23.3057 292.861,31.9724 286.5,40.5C 279.522,31.8913 273.022,22.8913 267,13.5C 266.5,24.495 266.333,35.495 266.5,46.5C 264.167,46.5 261.833,46.5 259.5,46.5C 259.5,31.1667 259.5,15.8333 259.5,0.5 Z"/></g>
<g><path style="opacity:0.996" fill="#faf9fb" d="M 316.5,0.5 C 318.833,0.5 321.167,0.5 323.5,0.5C 323.336,3.1873 323.503,5.85397 324,8.5C 329.376,13.708 334.543,19.0413 339.5,24.5C 345.184,19.6493 350.351,14.316 355,8.5C 355.497,5.85397 355.664,3.1873 355.5,0.5C 357.833,0.5 360.167,0.5 362.5,0.5C 362.665,4.18174 362.499,7.84841 362,11.5C 356,18.1667 350,24.8333 344,31.5C 343.501,36.4889 343.334,41.4889 343.5,46.5C 341.167,46.5 338.833,46.5 336.5,46.5C 336.666,41.8215 336.499,37.1548 336,32.5C 329.667,25.5 323.333,18.5 317,11.5C 316.501,7.84841 316.335,4.18174 316.5,0.5 Z"/></g>
<g><path style="opacity:1" fill="#a989e2" d="M 410.5,11.5 C 410.5,8.16667 410.5,4.83333 410.5,1.5C 408.833,1.5 407.167,1.5 405.5,1.5C 405.795,3.73535 405.461,5.73535 404.5,7.5C 404.5,5.16667 404.5,2.83333 404.5,0.5C 407.167,0.5 409.833,0.5 412.5,0.5C 412.665,3.8499 412.498,7.18323 412,10.5C 411.617,11.056 411.117,11.3893 410.5,11.5 Z"/></g>
<g><path style="opacity:0.546" fill="#d0bff2" d="M 366.5,0.5 C 365.99,4.81309 366.657,8.81309 368.5,12.5C 367.504,12.5858 366.671,12.2524 366,11.5C 365.19,7.64246 365.357,3.97579 366.5,0.5 Z"/></g>
<g><path style="opacity:1" fill="#a581e3" d="M 368.5,12.5 C 371.204,12.6696 372.871,14.0029 373.5,16.5C 371.611,15.396 369.945,14.0627 368.5,12.5 Z"/></g>
<g><path style="opacity:1" fill="#9361f1" d="M 366.5,0.5 C 368.5,0.5 370.5,0.5 372.5,0.5C 372.338,2.5273 372.505,4.5273 373,6.5C 376.455,9.8026 380.289,12.4693 384.5,14.5C 384.5,15.1667 384.833,15.5 385.5,15.5C 386.167,16.8333 387.167,17.8333 388.5,18.5C 389.601,19.7997 390.934,20.2997 392.5,20C 392.912,18.4361 393.245,16.9361 393.5,15.5C 394.922,14.075 396.589,13.075 398.5,12.5C 400.749,11.9202 402.415,10.5869 403.5,8.5C 403.5,7.83333 403.833,7.5 404.5,7.5C 405.461,5.73535 405.795,3.73535 405.5,1.5C 407.167,1.5 408.833,1.5 410.5,1.5C 410.5,4.83333 410.5,8.16667 410.5,11.5C 405.981,14.9292 401.648,18.5959 397.5,22.5C 395.897,22.3118 394.563,22.8118 393.5,24C 394.617,25.8921 396.284,26.7254 398.5,26.5C 399.167,26.8333 399.833,27.1667 400.5,27.5C 399.145,29.6804 399.311,31.6804 401,33.5C 402.045,32.6266 402.878,31.6266 403.5,30.5C 404.71,30.9321 405.71,31.5987 406.5,32.5C 406.5,33.1667 406.5,33.8333 406.5,34.5C 405.5,34.8333 404.833,35.5 404.5,36.5C 403.298,37.4054 401.964,37.4054 400.5,36.5C 396.289,34.4687 392.456,31.802 389,28.5C 383.667,32.5 378.333,36.5 373,40.5C 372.505,42.4727 372.338,44.4727 372.5,46.5C 370.167,46.5 367.833,46.5 365.5,46.5C 365.335,43.1501 365.502,39.8168 366,36.5C 371.41,32.2119 376.91,28.0452 382.5,24C 380.604,21.932 378.604,20.0987 376.5,18.5C 376.027,17.0937 375.027,16.427 373.5,16.5C 372.871,14.0029 371.204,12.6696 368.5,12.5C 366.657,8.81309 365.99,4.81309 366.5,0.5 Z"/></g>
<g><path style="opacity:1" fill="#a888e3" d="M 403.5,8.5 C 402.415,10.5869 400.749,11.9202 398.5,12.5C 399.585,10.4131 401.251,9.07978 403.5,8.5 Z"/></g>
<g><path style="opacity:1" fill="#f3f0f8" d="M 385.5,15.5 C 384.833,15.5 384.5,15.1667 384.5,14.5C 383.476,9.10622 385.142,8.27288 389.5,12C 388.295,13.3756 386.962,14.5423 385.5,15.5 Z"/></g>
<g><path style="opacity:1" fill="#f3f1f8" d="M 380.5,2.5 C 384.109,4.42397 384.275,6.42397 381,8.5C 377.897,6.88796 377.73,4.88796 380.5,2.5 Z"/></g>
<g><path style="opacity:0.937" fill="#baa1e3" d="M 373.5,16.5 C 375.027,16.427 376.027,17.0937 376.5,18.5C 374.973,18.573 373.973,17.9063 373.5,16.5 Z"/></g>
<g><path style="opacity:1" fill="#f3eaf9" d="M 393.5,15.5 C 393.245,16.9361 392.912,18.4361 392.5,20C 390.934,20.2997 389.601,19.7997 388.5,18.5C 389.401,16.2729 391.067,15.2729 393.5,15.5 Z"/></g>
<g><path style="opacity:1" fill="#f4edfb" d="M 397.5,22.5 C 399.109,23.6654 399.443,24.9988 398.5,26.5C 396.284,26.7254 394.617,25.8921 393.5,24C 394.563,22.8118 395.897,22.3118 397.5,22.5 Z"/></g>
<g><path style="opacity:1" fill="#f9f0fc" d="M 400.5,27.5 C 402.144,27.8102 403.144,28.8102 403.5,30.5C 402.878,31.6266 402.045,32.6266 401,33.5C 399.311,31.6804 399.145,29.6804 400.5,27.5 Z"/></g>
<g><path style="opacity:1" fill="#f9eaff" d="M 406.5,34.5 C 407.401,35.2905 408.068,36.2905 408.5,37.5C 407.71,38.4013 406.71,39.0679 405.5,39.5C 404.89,38.609 404.557,37.609 404.5,36.5C 404.833,35.5 405.5,34.8333 406.5,34.5 Z"/></g>
<g><path style="opacity:1" fill="#ac92db" d="M 406.5,32.5 C 410.916,33.912 412.916,36.912 412.5,41.5C 411.833,41.5 411.167,41.5 410.5,41.5C 411.412,40.2618 411.579,38.9285 411,37.5C 410.23,36.4019 409.397,36.4019 408.5,37.5C 408.068,36.2905 407.401,35.2905 406.5,34.5C 406.5,33.8333 406.5,33.1667 406.5,32.5 Z"/></g>
<g><path style="opacity:0.624" fill="#b69ce5" d="M 400.5,36.5 C 401.964,37.4054 403.298,37.4054 404.5,36.5C 404.557,37.609 404.89,38.609 405.5,39.5C 405.5,41.8333 405.5,44.1667 405.5,46.5C 404.835,44.3021 404.168,41.9688 403.5,39.5C 402.145,38.8118 401.145,37.8118 400.5,36.5 Z"/></g>
<g><path style="opacity:1" fill="#8b5be9" d="M 410.5,41.5 C 409.711,41.7828 409.044,42.2828 408.5,43C 409.71,44.0391 410.71,45.2058 411.5,46.5C 409.5,46.5 407.5,46.5 405.5,46.5C 405.5,44.1667 405.5,41.8333 405.5,39.5C 406.71,39.0679 407.71,38.4013 408.5,37.5C 409.397,36.4019 410.23,36.4019 411,37.5C 411.579,38.9285 411.412,40.2618 410.5,41.5 Z"/></g>
<g><path style="opacity:1" fill="#f0e7f7" d="M 410.5,41.5 C 411.167,41.5 411.833,41.5 412.5,41.5C 413.289,41.7828 413.956,42.2828 414.5,43C 413.364,44.1451 412.364,45.3117 411.5,46.5C 410.71,45.2058 409.71,44.0391 408.5,43C 409.044,42.2828 409.711,41.7828 410.5,41.5 Z"/></g>
<g><path style="opacity:1" fill="#efeaf7" d="M 415.5,46.5 C 420.49,48.1385 420.657,50.1385 416,52.5C 413.327,50.4585 413.16,48.4585 415.5,46.5 Z"/></g>
<g><path style="opacity:0.91" fill="#f1ecfa" d="M 420.5,52.5 C 425.197,53.8743 425.531,55.8743 421.5,58.5C 418.025,56.9158 417.692,54.9158 420.5,52.5 Z"/></g>
<g><path style="opacity:1" fill="#f4f0fa" d="M 426.5,58.5 C 430.473,60.4603 430.473,62.4603 426.5,64.5C 422.789,62.2253 422.789,60.2253 426.5,58.5 Z"/></g>
</svg>
