<?xml version="1.0" encoding="UTF-8"?>
<svg version="1.1" xmlns="http://www.w3.org/2000/svg" width="500" height="500">
<path d="M0 0 C2.31 0 4.62 0 7 0 C7.12375 1.27875 7.2475 2.5575 7.375 3.875 C8.62383054 9.73062765 12.29247084 12.8079888 16.58984375 16.73828125 C18.6972211 18.71586874 20.3592728 20.63367067 22 23 C26.33061193 21.34325258 29.07789032 18.17591257 32.1875 14.875 C32.73341797 14.33101562 33.27933594 13.78703125 33.84179688 13.2265625 C37.89211045 8.9303191 38.77443636 5.89043346 39 0 C45.625 -0.25 45.625 -0.25 49 2 C49 1.34 49 0.68 49 0 C51.31 0 53.62 0 56 0 C56.19335938 1.04285156 56.38671875 2.08570313 56.5859375 3.16015625 C57.91178414 7.80061948 60.78185472 9.77275504 64.625 12.4375 C65.23601562 12.88287109 65.84703125 13.32824219 66.4765625 13.78710938 C67.97278393 14.87420775 69.48487238 15.93941067 71 17 C71.66 16.34 72.32 15.68 73 15 C73.86625 14.7525 74.7325 14.505 75.625 14.25 C80.06946314 12.60390254 83.72491488 10.4626795 87 7 C87.94903587 4.46754599 88 2.75159832 88 0 C90.64 0 93.28 0 96 0 C96.94895557 3.96151293 97.17352354 7.07017536 96 11 C92.12266251 15.23971835 86.90935945 18.11324655 82 21 C82.495 23.475 82.495 23.475 83 26 C84.485 26.495 84.485 26.495 86 27 C87.68873879 28.64429829 89.35305515 30.31384218 91 32 C91.886875 32.598125 92.77375 33.19625 93.6875 33.8125 C96.97551359 36.92278312 97.19239994 39.59490877 98 44 C97.34 44 96.68 44 96 44 C96 44.66 96 45.32 96 46 C93.36 46 90.72 46 88 46 C87.98066406 44.95714844 87.96132813 43.91429687 87.94140625 42.83984375 C86.66856464 37.6481288 84.28990925 36.32370587 79.9375 33.5625 C79.27427734 33.11712891 78.61105469 32.67175781 77.92773438 32.21289062 C76.29799486 31.12248936 74.65062017 30.05852674 73 29 C69.30564091 30.68169373 66.10790946 32.88982855 62.8125 35.25 C61.21341797 36.37148438 61.21341797 36.37148438 59.58203125 37.515625 C56.59936162 40.38548564 56.20545188 41.93792279 56 46 C49.84765625 46.09765625 49.84765625 46.09765625 48 46 C46.10114904 44.10114904 46.87632494 41.42752097 46.8671875 38.91015625 C47 37 47 37 48 35 C49.6022226 34.11366409 51.20529381 33.22882921 52.8125 32.3515625 C57.1768266 29.65503214 61.05663305 26.26894806 65 23 C62.89674758 21.37380483 60.79244271 19.74900468 58.6875 18.125 C58.09259766 17.66480469 57.49769531 17.20460937 56.88476562 16.73046875 C54.29971995 14.73752851 51.71700932 12.81133955 49 11 C49 9.68 49 8.36 49 7 C48.34 7 47.68 7 47 7 C46.7215625 7.99 46.7215625 7.99 46.4375 9 C43.88846952 14.31971577 39.66936896 18.46605182 35.3515625 22.43359375 C29.79776033 27.7884775 27.16958466 31.53823871 26.875 39.1875 C26.87047116 41.45871105 26.89589721 43.7311715 27 46 C24.36 46 21.72 46 19 46 C19.05542969 45.05640625 19.11085938 44.1128125 19.16796875 43.140625 C19.2077158 35.22301328 18.55150376 30.3302568 12.875 24.5625 C10.95809911 22.6527914 8.9986739 20.8278239 7 19 C0.24361735 12.69404286 0.24361735 12.69404286 -0.421875 8.06640625 C-0.43578148 5.33726025 -0.31377736 2.70944256 0 0 Z " fill="#6E45C4" transform="translate(360,224)"/>
<path d="M0 0 C8 0 8 0 10.3293457 2.0637207 C10.93866943 3.00820068 11.54799316 3.95268066 12.17578125 4.92578125 C12.85833984 5.94994141 13.54089844 6.97410156 14.24414062 8.02929688 C14.92669922 9.11275391 15.60925781 10.19621094 16.3125 11.3125 C17.70236402 13.43494616 19.09420735 15.55609786 20.48828125 17.67578125 C21.09196533 18.62364502 21.69564941 19.57150879 22.31762695 20.5480957 C23.74959804 22.63506213 25.13789194 24.30262371 27 26 C32.67013208 18.30994745 38.33221468 10.62363136 43.7578125 2.7578125 C45 1 45 1 46 0 C48.31 0 50.62 0 53 0 C53 15.18 53 30.36 53 46 C50.69 46 48.38 46 46 46 C45.67 35.77 45.34 25.54 45 15 C42.9375 18.01125 40.875 21.0225 38.75 24.125 C38.10772461 25.06230957 37.46544922 25.99961914 36.80371094 26.96533203 C33.84157524 31.29240953 30.89552463 35.62804449 28 40 C24.05796543 38.48914239 22.45401873 36.21476942 20.109375 32.7734375 C19.40039062 31.7421875 18.69140625 30.7109375 17.9609375 29.6484375 C17.23132813 28.56820312 16.50171875 27.48796875 15.75 26.375 C15.00492187 25.28703125 14.25984375 24.1990625 13.4921875 23.078125 C11.65344683 20.3907348 9.8231488 17.6979815 8 15 C8.01160156 15.98097656 8.02320313 16.96195313 8.03515625 17.97265625 C8.1101593 27.36678868 7.75353775 36.63460228 7 46 C4.69 46 2.38 46 0 46 C0 30.82 0 15.64 0 0 Z " fill="#E6E6E6" transform="translate(303,224)"/>
<path d="M0 0 C15.51 0 31.02 0 47 0 C47 2.31 47 4.62 47 7 C34.13 7.33 21.26 7.66 8 8 C7.67 11.63 7.34 15.26 7 19 C17.89 19 28.78 19 40 19 C40 21.64 40 24.28 40 27 C29.11 27 18.22 27 7 27 C7 30.96 7 34.92 7 39 C20.2 39 33.4 39 47 39 C47 41.31 47 43.62 47 46 C31.49 46 15.98 46 0 46 C0 30.82 0 15.64 0 0 Z " fill="#E5E5E5" transform="translate(252,224)"/>
<path d="M0 0 C1.22396484 -0.020625 2.44792969 -0.04125 3.70898438 -0.0625 C5.48692383 -0.07023438 5.48692383 -0.07023438 7.30078125 -0.078125 C8.38141846 -0.0874707 9.46205566 -0.09681641 10.57543945 -0.10644531 C14.33970396 0.32470132 16.53539169 1.13041839 19.6875 3.25 C23.5842206 8.47625189 24.25398588 12.40858755 24.078125 18.80859375 C24.07246521 19.59774673 24.06680542 20.38689972 24.06097412 21.19996643 C24.03875686 23.69645374 23.98859219 26.19145375 23.9375 28.6875 C23.91741588 30.38995309 23.89916847 32.09242889 23.8828125 33.79492188 C23.83894072 37.94717914 23.77001908 42.09833828 23.6875 46.25 C21.3775 46.25 19.0675 46.25 16.6875 46.25 C16.6875 41.96 16.6875 37.67 16.6875 33.25 C6.1275 33.25 -4.4325 33.25 -15.3125 33.25 C-15.3125 37.54 -15.3125 41.83 -15.3125 46.25 C-17.9525 46.25 -20.5925 46.25 -23.3125 46.25 C-23.38693657 41.37535909 -23.44123667 36.50105272 -23.47729492 31.62597656 C-23.49233465 29.96934237 -23.51277177 28.31274769 -23.53881836 26.65625 C-23.57541515 24.2681297 -23.59227439 21.88053812 -23.60546875 19.4921875 C-23.62095261 18.75757294 -23.63643646 18.02295837 -23.65238953 17.26608276 C-23.65431066 11.3289309 -22.17699699 7.40582465 -18.3125 2.9375 C-13.32759122 -1.26851678 -6.15913344 0.02570322 0 0 Z M-15.3125 11.25 C-15.3125 16.2 -15.3125 21.15 -15.3125 26.25 C-4.7525 26.25 5.8075 26.25 16.6875 26.25 C17.8022408 14.13607602 17.8022408 14.13607602 13.6875 8.25 C9.69941908 6.25595954 4.69754473 6.97741242 0.3125 6.9375 C-0.74195313 6.90849609 -1.79640625 6.87949219 -2.8828125 6.84960938 C-3.89859375 6.84123047 -4.914375 6.83285156 -5.9609375 6.82421875 C-6.89083496 6.80963623 -7.82073242 6.79505371 -8.77880859 6.7800293 C-11.93580503 7.11825553 -11.93580503 7.11825553 -15.3125 11.25 Z " fill="#E6E6E6" transform="translate(171.3125,223.75)"/>
<path d="M0 0 C1.78857422 -0.01643555 1.78857422 -0.01643555 3.61328125 -0.03320312 C14.58400188 0.05873029 14.58400188 0.05873029 19.25 4.5625 C22.60467182 8.8989902 22.64729344 12.86543065 22.54296875 18.14453125 C22.53872391 18.95871017 22.53447906 19.7728891 22.53010559 20.61174011 C22.51337753 23.19983668 22.47573712 25.78714071 22.4375 28.375 C22.42244553 30.13475434 22.40875846 31.89452095 22.39648438 33.65429688 C22.36349336 37.95733437 22.3117524 42.25978303 22.25 46.5625 C19.94 46.5625 17.63 46.5625 15.25 46.5625 C15.25 42.2725 15.25 37.9825 15.25 33.5625 C4.69 33.5625 -5.87 33.5625 -16.75 33.5625 C-16.75 37.8525 -16.75 42.1425 -16.75 46.5625 C-19.06 46.5625 -21.37 46.5625 -23.75 46.5625 C-23.75 35.0125 -23.75 23.4625 -23.75 11.5625 C-24.41 11.5625 -25.07 11.5625 -25.75 11.5625 C-25.375 8.875 -25.375 8.875 -23.75 5.5625 C-16.44912492 0.08540839 -8.81061649 -0.17852837 0 0 Z M-16.75 11.5625 C-16.75 16.5125 -16.75 21.4625 -16.75 26.5625 C-6.19 26.5625 4.37 26.5625 15.25 26.5625 C15.25 21.6125 15.25 16.6625 15.25 11.5625 C10.14428138 6.45678138 5.80713316 7.31309587 -1.125 7.25 C-2.17945313 7.22099609 -3.23390625 7.19199219 -4.3203125 7.16210938 C-5.33609375 7.15373047 -6.351875 7.14535156 -7.3984375 7.13671875 C-8.32833496 7.12213623 -9.25823242 7.10755371 -10.21630859 7.0925293 C-13.37330503 7.43075553 -13.37330503 7.43075553 -16.75 11.5625 Z " fill="#F0F0F0" transform="translate(69.75,223.4375)"/>
<path d="M0 0 C8.971875 -0.12375 8.971875 -0.12375 18.125 -0.25 C20.00203613 -0.28641602 21.87907227 -0.32283203 23.81298828 -0.36035156 C25.31541808 -0.37204362 26.81786064 -0.38223423 28.3203125 -0.390625 C29.08851318 -0.41108887 29.85671387 -0.43155273 30.64819336 -0.45263672 C35.87748796 -0.45600502 38.94748287 0.39859379 43 4 C47.02239622 10.21986066 46.47950066 16.32934229 46.4375 23.5 C46.4674707 25.31564453 46.4674707 25.31564453 46.49804688 27.16796875 C46.49367163 35.12216058 45.97810522 38.93908102 40.4050293 44.62817383 C36.82794789 46.66853729 33.30028192 46.36977127 29.296875 46.29296875 C28.1823999 46.28843689 28.1823999 46.28843689 27.04541016 46.28381348 C24.28013136 46.26816255 21.51505118 46.22627844 18.75 46.1875 C9.46875 46.0946875 9.46875 46.0946875 0 46 C0 30.82 0 15.64 0 0 Z M7 7 C7 17.56 7 28.12 7 39 C11.5375 39.0825 16.075 39.165 20.75 39.25 C22.88807129 39.30462402 22.88807129 39.30462402 25.06933594 39.36035156 C26.19629883 39.3703418 27.32326172 39.38033203 28.484375 39.390625 C29.63647461 39.41157227 30.78857422 39.43251953 31.97558594 39.45410156 C35.06605406 39.2243778 35.06605406 39.2243778 37.37182617 37.3034668 C40.32566872 33.12450377 39.61463738 28.5155508 39.5625 23.5625 C39.58634766 22.52544922 39.61019531 21.48839844 39.63476562 20.41992188 C39.62611901 15.93232617 39.42237442 12.80922201 37.328125 8.796875 C31.8521086 5.84034032 26.28743504 6.48394065 20.1875 6.6875 C13.6596875 6.8421875 13.6596875 6.8421875 7 7 Z " fill="#EDEDED" transform="translate(201,224)"/>
<path d="M0 0 C1.27617188 -0.02900391 2.55234375 -0.05800781 3.8671875 -0.08789062 C15.64858306 -0.16782702 15.64858306 -0.16782702 20.25 4.3125 C22.59512613 8.06470181 23.25 9.84211855 23.25 14.3125 C19.9375 14.625 19.9375 14.625 16.25 14.3125 C14.4375 11.875 14.4375 11.875 13.25 9.3125 C10.72381284 8.04940642 8.95352699 8.18309858 6.12890625 8.1796875 C5.11119141 8.17839844 4.09347656 8.17710937 3.04492188 8.17578125 C1.97822266 8.17964844 0.91152344 8.18351563 -0.1875 8.1875 C-1.25033203 8.18363281 -2.31316406 8.17976562 -3.40820312 8.17578125 C-4.42720703 8.17707031 -5.44621094 8.17835938 -6.49609375 8.1796875 C-7.43122803 8.18081543 -8.3663623 8.18194336 -9.32983398 8.18310547 C-11.89308622 8.21290229 -11.89308622 8.21290229 -14.75 9.3125 C-14.83674429 13.77071166 -14.89030513 18.22870804 -14.9375 22.6875 C-14.96263672 23.95851562 -14.98777344 25.22953125 -15.01367188 26.5390625 C-15.02333984 27.75078125 -15.03300781 28.9625 -15.04296875 30.2109375 C-15.0586792 31.33161621 -15.07438965 32.45229492 -15.09057617 33.60693359 C-14.92199097 34.94618896 -14.92199097 34.94618896 -14.75 36.3125 C-11.25663182 38.64141212 -9.88992135 38.54801143 -5.76953125 38.5078125 C-4.60615234 38.50136719 -3.44277344 38.49492187 -2.24414062 38.48828125 C-1.02919922 38.47152344 0.18574219 38.45476562 1.4375 38.4375 C3.27731445 38.42396484 3.27731445 38.42396484 5.15429688 38.41015625 C8.18639295 38.38656017 11.21809938 38.35363841 14.25 38.3125 C14.91 36.6625 15.57 35.0125 16.25 33.3125 C18.56 33.3125 20.87 33.3125 23.25 33.3125 C22.79713369 38.18081281 21.66678531 40.79809226 18.25 44.3125 C12.88976843 47.7655444 6.07263444 46.76449895 -0.0625 46.8125 C-2.02219727 46.874375 -2.02219727 46.874375 -4.02148438 46.9375 C-14.79892874 47.02516604 -14.79892874 47.02516604 -19.04296875 43.71875 C-24.37912727 37.93302501 -24.06643681 30.73127744 -24 23.3125 C-24.00773437 22.44882813 -24.01546875 21.58515625 -24.0234375 20.6953125 C-23.98796487 9.02481612 -23.98796487 9.02481612 -20.3125 4.5703125 C-13.4284227 -0.42064354 -8.39472624 0.06283478 0 0 Z " fill="#E3E3E3" transform="translate(120.75,223.6875)"/>
<path d="M0 0 C2.31 0 4.62 0 7 0 C7.12375 1.27875 7.2475 2.5575 7.375 3.875 C8.62383054 9.73062765 12.29247084 12.8079888 16.58984375 16.73828125 C18.6972211 18.71586874 20.3592728 20.63367067 22 23 C26.33061193 21.34325258 29.07789032 18.17591257 32.1875 14.875 C32.73341797 14.33101562 33.27933594 13.78703125 33.84179688 13.2265625 C37.89211045 8.9303191 38.77443636 5.89043346 39 0 C41.31 0 43.62 0 46 0 C46.77012811 5.00107884 47.14315722 9.23498642 44.3125 13.60546875 C41.17616791 17.03038696 37.87754259 20.20660533 34.43359375 23.3203125 C29.21837436 28.39322253 27.25370963 31.96402934 26.9375 39.125 C26.91707917 41.41667038 26.92365036 43.70951078 27 46 C24.36 46 21.72 46 19 46 C19.05542969 45.05640625 19.11085938 44.1128125 19.16796875 43.140625 C19.2077158 35.22301328 18.55150376 30.3302568 12.875 24.5625 C10.95809911 22.6527914 8.9986739 20.8278239 7 19 C0.24361735 12.69404286 0.24361735 12.69404286 -0.421875 8.06640625 C-0.43578148 5.33726025 -0.31377736 2.70944256 0 0 Z " fill="#E1E1E1" transform="translate(360,224)"/>
<path d="M0 0 C2.31 0 4.62 0 7 0 C7.19722656 1.04671875 7.39445312 2.0934375 7.59765625 3.171875 C8.9059632 7.74231934 11.63600606 9.64088722 15.4375 12.25 C22.69548458 17.45594714 22.69548458 17.45594714 25 20 C24.67 20.99 24.34 21.98 24 23 C23.01 22.67 22.02 22.34 21 22 C20.896875 23.299375 20.79375 24.59875 20.6875 25.9375 C19.43314267 31.98122167 15.30285022 34.39946233 10.43359375 37.76171875 C7.49630769 40.46326756 7.22932974 42.09020764 7 46 C0.84765625 46.09765625 0.84765625 46.09765625 -1 46 C-2.89885096 44.10114904 -2.12367506 41.42752097 -2.1328125 38.91015625 C-2 37 -2 37 -1 35 C0.6022226 34.11366409 2.20529381 33.22882921 3.8125 32.3515625 C8.1768266 29.65503214 12.05663305 26.26894806 16 23 C13.89674758 21.37380483 11.79244271 19.74900468 9.6875 18.125 C9.09259766 17.66480469 8.49769531 17.20460937 7.88476562 16.73046875 C5.29971995 14.73752851 2.71700932 12.81133955 0 11 C0 9.68 0 8.36 0 7 C-0.66 7 -1.32 7 -2 7 C-2.33 7.66 -2.66 8.32 -3 9 C-3 6.36 -3 3.72 -3 1 C-2.01 1.33 -1.02 1.66 0 2 C0 1.34 0 0.68 0 0 Z " fill="#7E4EE1" transform="translate(409,224)"/>
<path d="M0 0 C2.64 0 5.28 0 8 0 C9.04300631 3.99432787 9.24241496 7.03401656 8 11 C3.79972466 15.56666752 -1.75578389 18.77230985 -7 22 C-7.66 21.67 -8.32 21.34 -9 21 C-9 20.34 -9 19.68 -9 19 C-8.01 19 -7.02 19 -6 19 C-5.67 17.68 -5.34 16.36 -5 15 C-6.65 15 -8.3 15 -10 15 C-5.33333333 10.2037037 -5.33333333 10.2037037 -2.75 8.625 C-0.07929671 6.14506123 -0.2648545 3.50932218 0 0 Z " fill="#6B43C0" transform="translate(448,224)"/>
<path d="M0 0 C2.31 0 4.62 0 7 0 C7.12375 0.99 7.2475 1.98 7.375 3 C8.92644865 8.74741203 14.38454397 11.72149341 19 15 C18.34 15.66 17.68 16.32 17 17 C15 15 15 15 14 13 C12.68 13.33 11.36 13.66 10 14 C10 14.99 10 15.98 10 17 C10.66 17 11.32 17 12 17 C11.67 17.66 11.34 18.32 11 19 C9.15559063 17.76640153 7.32471135 16.51255281 5.5 15.25 C4.4790625 14.55390625 3.458125 13.8578125 2.40625 13.140625 C1.6121875 12.43421875 0.818125 11.7278125 0 11 C0 9.68 0 8.36 0 7 C-0.66 7 -1.32 7 -2 7 C-2.33 7.66 -2.66 8.32 -3 9 C-3 6.36 -3 3.72 -3 1 C-2.01 1.33 -1.02 1.66 0 2 C0 1.34 0 0.68 0 0 Z " fill="#653FB1" transform="translate(409,224)"/>
<path d="M0 0 C-0.625 2.3125 -0.625 2.3125 -2 5 C-4 6 -6 7 -8 8 C-10.57039623 12.16159389 -10.60379626 17.21427584 -11 22 C-17.15234375 22.09765625 -17.15234375 22.09765625 -19 22 C-20.89885096 20.10114904 -20.12367506 17.42752097 -20.1328125 14.91015625 C-20 13 -20 13 -19 11 C-17.37491242 10.08588824 -15.74766741 9.17538539 -14.109375 8.28515625 C-10.8374958 6.29173355 -7.95639692 3.8378408 -5.015625 1.390625 C-3 0 -3 0 0 0 Z " fill="#6740B9" transform="translate(427,248)"/>
<path d="M0 0 C1.37478516 0.01740234 1.37478516 0.01740234 2.77734375 0.03515625 C3.69644531 0.04417969 4.61554688 0.05320313 5.5625 0.0625 C6.27277344 0.07410156 6.98304688 0.08570313 7.71484375 0.09765625 C7.38484375 1.41765625 7.05484375 2.73765625 6.71484375 4.09765625 C5.72484375 4.09765625 4.73484375 4.09765625 3.71484375 4.09765625 C4.70484375 5.02578125 4.70484375 5.02578125 5.71484375 5.97265625 C7.71484375 8.09765625 7.71484375 8.09765625 7.71484375 10.09765625 C5.06745459 11.55828475 3.82036041 12.09765625 0.71484375 12.09765625 C-1.62080558 12.41435446 -3.95453445 12.74586428 -6.28515625 13.09765625 C-6.97265625 11.28515625 -6.97265625 11.28515625 -7.28515625 9.09765625 C-5.84765625 7.34765625 -5.84765625 7.34765625 -4.28515625 6.09765625 C-3.95515625 6.42765625 -3.62515625 6.75765625 -3.28515625 7.09765625 C-2.03038654 4.58811683 -2.6070488 3.72532262 -3.28515625 1.09765625 C-2.28515625 0.09765625 -2.28515625 0.09765625 0 0 Z " fill="#8158D7" transform="translate(435.28515625,238.90234375)"/>
<path d="M0 0 C1.65 0 3.3 0 5 0 C5 2.64 5 5.28 5 8 C6.32 8.66 7.64 9.32 9 10 C9 10.99 9 11.98 9 13 C3.375 13.25 3.375 13.25 0 11 C-0.29296875 8.3984375 -0.29296875 8.3984375 -0.1875 5.375 C-0.16042969 4.37210938 -0.13335937 3.36921875 -0.10546875 2.3359375 C-0.07066406 1.56507813 -0.03585937 0.79421875 0 0 Z " fill="#8A53F9" transform="translate(410,225)"/>
<path d="M0 0 C1.9375 0.75 1.9375 0.75 4 2 C4.33333333 3.33333333 4.66666667 4.66666667 5 6 C6.9837767 7.28436734 6.9837767 7.28436734 9 8 C9 8.66 9 9.32 9 10 C8.34 10 7.68 10 7 10 C7 10.66 7 11.32 7 12 C4.69 12 2.38 12 0 12 C-0.19401633 10.18818595 -0.38004375 8.37551468 -0.5625 6.5625 C-0.66691406 5.55316406 -0.77132813 4.54382813 -0.87890625 3.50390625 C-0.91886719 2.67761719 -0.95882813 1.85132813 -1 1 C-0.67 0.67 -0.34 0.34 0 0 Z " fill="#845AE1" transform="translate(449,258)"/>
<path d="M0 0 C0.66 0.33 1.32 0.66 2 1 C1.01 2.485 1.01 2.485 0 4 C-0.24121349 6.89659349 -0.37299442 9.7053355 -0.4140625 12.60546875 C-0.43342865 13.44467361 -0.4527948 14.28387848 -0.4727478 15.14851379 C-0.53251213 17.82807258 -0.57891612 20.5076744 -0.625 23.1875 C-0.6631827 25.00457599 -0.70223461 26.82163394 -0.7421875 28.63867188 C-0.83821103 33.09230132 -0.92225359 37.54601551 -1 42 C-1.33 42 -1.66 42 -2 42 C-2 30.45 -2 18.9 -2 7 C-2.66 7 -3.32 7 -4 7 C-3.39816251 4.97954558 -2.72693904 2.97888961 -2 1 C-1.34 0.67 -0.68 0.34 0 0 Z " fill="#BFBFBF" transform="translate(48,228)"/>
<path d="M0 0 C1.51056694 0.89914699 3.00825429 1.81996101 4.5 2.75 C5.3353125 3.26046875 6.170625 3.7709375 7.03125 4.296875 C7.6809375 4.85890625 8.330625 5.4209375 9 6 C9 7.32 9 8.64 9 10 C8.34 10 7.68 10 7 10 C7 9.34 7 8.68 7 8 C6.34 7.67 5.68 7.34 5 7 C4.67 6.34 4.34 5.68 4 5 C3.34 5 2.68 5 2 5 C2 8.63 2 12.26 2 16 C1.67 16 1.34 16 1 16 C0.896875 14.906875 0.79375 13.81375 0.6875 12.6875 C0.02692273 9.14440371 -0.2027092 8.06756277 -3 6 C-2.34 6 -1.68 6 -1 6 C-0.67 5.34 -0.34 4.68 0 4 C-0.66 4 -1.32 4 -2 4 C-1.34 2.68 -0.68 1.36 0 0 Z " fill="#7250B6" transform="translate(447,254)"/>
<path d="M0 0 C0.99 0.33 1.98 0.66 3 1 C1.125 8.75 1.125 8.75 0 11 C-2.5625 11.625 -2.5625 11.625 -5 12 C-5.6875 10.1875 -5.6875 10.1875 -6 8 C-4.5625 6.25 -4.5625 6.25 -3 5 C-2.67 5.33 -2.34 5.66 -2 6 C-1.67 5.34 -1.34 4.68 -1 4 C-1.33 3.01 -1.66 2.02 -2 1 C-1.34 0.67 -0.68 0.34 0 0 Z " fill="#AC7FFD" transform="translate(434,240)"/>
<path d="M0 0 C2.31 0 4.62 0 7 0 C7.33 2.97 7.66 5.94 8 9 C7.34 9 6.68 9 6 9 C6 6.36 6 3.72 6 1 C4.35 1 2.7 1 1 1 C1 4.3 1 7.6 1 11 C0.67 9.68 0.34 8.36 0 7 C-0.66 7 -1.32 7 -2 7 C-2.33 7.66 -2.66 8.32 -3 9 C-3 6.36 -3 3.72 -3 1 C-2.01 1.33 -1.02 1.66 0 2 C0 1.34 0 0.68 0 0 Z " fill="#6541A8" transform="translate(409,224)"/>
<path d="M0 0 C0.99 0.33 1.98 0.66 3 1 C2.34 2.65 1.68 4.3 1 6 C1.66 6 2.32 6 3 6 C2.67 6.99 2.34 7.98 2 9 C0.02 8.01 -1.96 7.02 -4 6 C-2.25 1.125 -2.25 1.125 0 0 Z " fill="#AD8DE8" transform="translate(444,252)"/>
<path d="M0 0 C0.33 0.66 0.66 1.32 1 2 C2.32 2 3.64 2 5 2 C5 2.66 5 3.32 5 4 C3.03125 5.5078125 3.03125 5.5078125 0.5 7.125 C-0.3353125 7.66382813 -1.170625 8.20265625 -2.03125 8.7578125 C-2.6809375 9.16773438 -3.330625 9.57765625 -4 10 C-3.5205537 5.78087253 -2.83374881 3.20336822 0 0 Z " fill="#794CD8" transform="translate(420,254)"/>
<path d="M0 0 C-0.96104584 3.55586962 -1.62717049 4.76801719 -4.8125 6.75 C-7.5833387 7.83660341 -10.06502873 8.56838658 -13 9 C-4.25 0 -4.25 0 0 0 Z " fill="#6B45C2" transform="translate(427,248)"/>
<path d="M0 0 C0.33 0 0.66 0 1 0 C1 1.65 1 3.3 1 5 C1.94875 4.79375 2.8975 4.5875 3.875 4.375 C5.421875 4.189375 5.421875 4.189375 7 4 C9 6 9 6 9 9 C3.375 9.25 3.375 9.25 0 7 C-0.1875 3.375 -0.1875 3.375 0 0 Z " fill="#7D4EDE" transform="translate(410,229)"/>
<path d="M0 0 C1.11375 0.556875 1.11375 0.556875 2.25 1.125 C0.6 2.775 -1.05 4.425 -2.75 6.125 C-4.07 5.465 -5.39 4.805 -6.75 4.125 C-6.75 3.135 -6.75 2.145 -6.75 1.125 C-4.02098495 -0.69434337 -3.21400584 -1.02263822 0 0 Z " fill="#7A50D4" transform="translate(443.75,249.875)"/>
<path d="M0 0 C1.32 0.66 2.64 1.32 4 2 C3.34 3.32 2.68 4.64 2 6 C0.68 5.34 -0.64 4.68 -2 4 C-1.34 2.68 -0.68 1.36 0 0 Z " fill="#AAAAAA" transform="translate(464,276)"/>
<path d="M0 0 C1.32 1.32 2.64 2.64 4 4 C3.34 4.66 2.68 5.32 2 6 C-0.125 5.625 -0.125 5.625 -2 5 C-2 2 -2 2 0 0 Z " fill="#A8ABA7" transform="translate(424,226)"/>
<path d="M0 0 C0.99 0.66 1.98 1.32 3 2 C2.34 3.32 1.68 4.64 1 6 C-0.32 5.34 -1.64 4.68 -3 4 C-2.67 3.01 -2.34 2.02 -2 1 C-1.34 0.67 -0.68 0.34 0 0 Z " fill="#B0B0B0" transform="translate(470,282)"/>
<path d="M0 0 C1.32 0.66 2.64 1.32 4 2 C3.67 2.99 3.34 3.98 3 5 C2.01 5.33 1.02 5.66 0 6 C-0.66 4.68 -1.32 3.36 -2 2 C-1.34 1.34 -0.68 0.68 0 0 Z " fill="#B0B0B1" transform="translate(459,270)"/>
<path d="M0 0 C1.98 0.495 1.98 0.495 4 1 C4 1.99 4 2.98 4 4 C3.01 4.66 2.02 5.32 1 6 C0.34 5.34 -0.32 4.68 -1 4 C-0.625 1.875 -0.625 1.875 0 0 Z " fill="#AFAFB1" transform="translate(428,233)"/>
<path d="M0 0 C1.65 0 3.3 0 5 0 C5 3.3 5 6.6 5 10 C4.67 10 4.34 10 4 10 C4 7.36 4 4.72 4 2 C1.66924071 2.95865509 1.66924071 2.95865509 0 6 C0 4.02 0 2.04 0 0 Z " fill="#8757E7" transform="translate(449,225)"/>
<path d="M0 0 C1.65 0 3.3 0 5 0 C5.33 0.99 5.66 1.98 6 3 C5.01 2.67 4.02 2.34 3 2 C2.34 4.31 1.68 6.62 1 9 C0.34 9 -0.32 9 -1 9 C-0.67 6.03 -0.34 3.06 0 0 Z " fill="#8B50FC" transform="translate(427,244)"/>
<path d="M0 0 C1.67542976 0.28604898 3.34385343 0.61781233 5 1 C5 1.66 5 2.32 5 3 C3.02 3.99 3.02 3.99 1 5 C0.34 3.68 -0.32 2.36 -1 1 C-0.67 0.67 -0.34 0.34 0 0 Z " fill="#D2C1DD" transform="translate(438,246)"/>
<path d="M0 0 C1.32 0.66 2.64 1.32 4 2 C4 2.66 4 3.32 4 4 C2.68 4.33 1.36 4.66 0 5 C-0.66 4.01 -1.32 3.02 -2 2 C-1.34 1.34 -0.68 0.68 0 0 Z " fill="#D6CDDD" transform="translate(454,264)"/>
<path d="M0 0 C2 2 2 2 2 6 C1.01 6.33 0.02 6.66 -1 7 C-1.33 5.02 -1.66 3.04 -2 1 C-1.34 0.67 -0.68 0.34 0 0 Z " fill="#7949DB" transform="translate(446,235)"/>
<path d="M0 0 C0.66 0.33 1.32 0.66 2 1 C1.67 2.98 1.34 4.96 1 7 C-0.32 7 -1.64 7 -3 7 C-2.34 6.67 -1.68 6.34 -1 6 C-1.0309375 4.7934375 -1.0309375 4.7934375 -1.0625 3.5625 C-1 1 -1 1 0 0 Z " fill="#8855EF" transform="translate(436,243)"/>
<path d="M0 0 C0.99 0.33 1.98 0.66 3 1 C3 2.65 3 4.3 3 6 C2.34 6 1.68 6 1 6 C0.67 6.66 0.34 7.32 0 8 C0 5.36 0 2.72 0 0 Z " fill="#07050C" transform="translate(406,225)"/>
<path d="M0 0 C2.5 1.25 2.5 1.25 5 3 C5 4.32 5 5.64 5 7 C4.34 7 3.68 7 3 7 C3 6.34 3 5.68 3 5 C2.34 4.67 1.68 4.34 1 4 C0.375 1.9375 0.375 1.9375 0 0 Z " fill="#5F419E" transform="translate(451,257)"/>
<path d="M0 0 C1.32 0.66 2.64 1.32 4 2 C3.01 3.485 3.01 3.485 2 5 C1.01 4.67 0.02 4.34 -1 4 C-0.67 2.68 -0.34 1.36 0 0 Z " fill="#EFDDFF" transform="translate(449,258)"/>
<path d="M0 0 C0.66 0.33 1.32 0.66 2 1 C0.7260411 3.03833424 -0.61061923 5.03852126 -2 7 C-2.66 7 -3.32 7 -4 7 C-3.39816251 4.97954558 -2.72693904 2.97888961 -2 1 C-1.34 0.67 -0.68 0.34 0 0 Z " fill="#0E0E0E" transform="translate(48,228)"/>
<path d="M0 0 C2 1 2 1 2 1 Z " fill="#000000" transform="translate(444,249)"/>
<path d="" fill="#000000" transform="translate(0,0)"/>
<path d="" fill="#000000" transform="translate(0,0)"/>
<path d="" fill="#000000" transform="translate(0,0)"/>
<path d="" fill="#000000" transform="translate(0,0)"/>
<path d="" fill="#000000" transform="translate(0,0)"/>
<path d="" fill="#000000" transform="translate(0,0)"/>
<path d="" fill="#000000" transform="translate(0,0)"/>
<path d="" fill="#000000" transform="translate(0,0)"/>
<path d="" fill="#000000" transform="translate(0,0)"/>
<path d="" fill="#000000" transform="translate(0,0)"/>
<path d="" fill="#000000" transform="translate(0,0)"/>
<path d="" fill="#000000" transform="translate(0,0)"/>
<path d="" fill="#000000" transform="translate(0,0)"/>
<path d="" fill="#000000" transform="translate(0,0)"/>
<path d="" fill="#000000" transform="translate(0,0)"/>
<path d="" fill="#000000" transform="translate(0,0)"/>
<path d="" fill="#000000" transform="translate(0,0)"/>
<path d="" fill="#000000" transform="translate(0,0)"/>
<path d="" fill="#000000" transform="translate(0,0)"/>
<path d="" fill="#000000" transform="translate(0,0)"/>
<path d="" fill="#000000" transform="translate(0,0)"/>
<path d="" fill="#000000" transform="translate(0,0)"/>
<path d="" fill="#000000" transform="translate(0,0)"/>
<path d="" fill="#000000" transform="translate(0,0)"/>
<path d="" fill="#000000" transform="translate(0,0)"/>
<path d="" fill="#000000" transform="translate(0,0)"/>
<path d="" fill="#000000" transform="translate(0,0)"/>
<path d="" fill="#000000" transform="translate(0,0)"/>
<path d="" fill="#000000" transform="translate(0,0)"/>
<path d="" fill="#000000" transform="translate(0,0)"/>
<path d="" fill="#000000" transform="translate(0,0)"/>
<path d="" fill="#000000" transform="translate(0,0)"/>
<path d="" fill="#000000" transform="translate(0,0)"/>
<path d="" fill="#000000" transform="translate(0,0)"/>
<path d="" fill="#000000" transform="translate(0,0)"/>
<path d="" fill="#000000" transform="translate(0,0)"/>
<path d="" fill="#000000" transform="translate(0,0)"/>
<path d="" fill="#000000" transform="translate(0,0)"/>
<path d="" fill="#000000" transform="translate(0,0)"/>
<path d="" fill="#000000" transform="translate(0,0)"/>
<path d="" fill="#000000" transform="translate(0,0)"/>
<path d="" fill="#000000" transform="translate(0,0)"/>
<path d="" fill="#000000" transform="translate(0,0)"/>
<path d="" fill="#000000" transform="translate(0,0)"/>
<path d="" fill="#000000" transform="translate(0,0)"/>
<path d="" fill="#000000" transform="translate(0,0)"/>
<path d="" fill="#000000" transform="translate(0,0)"/>
<path d="" fill="#000000" transform="translate(0,0)"/>
<path d="" fill="#000000" transform="translate(0,0)"/>
<path d="" fill="#000000" transform="translate(0,0)"/>
<path d="" fill="#000000" transform="translate(0,0)"/>
<path d="" fill="#000000" transform="translate(0,0)"/>
<path d="" fill="#000000" transform="translate(0,0)"/>
<path d="" fill="#000000" transform="translate(0,0)"/>
<path d="" fill="#000000" transform="translate(0,0)"/>
<path d="" fill="#000000" transform="translate(0,0)"/>
<path d="" fill="#000000" transform="translate(0,0)"/>
<path d="" fill="#000000" transform="translate(0,0)"/>
<path d="" fill="#000000" transform="translate(0,0)"/>
<path d="" fill="#000000" transform="translate(0,0)"/>
<path d="" fill="#000000" transform="translate(0,0)"/>
<path d="" fill="#000000" transform="translate(0,0)"/>
<path d="" fill="#000000" transform="translate(0,0)"/>
<path d="" fill="#000000" transform="translate(0,0)"/>
<path d="" fill="#000000" transform="translate(0,0)"/>
<path d="" fill="#000000" transform="translate(0,0)"/>
<path d="" fill="#000000" transform="translate(0,0)"/>
<path d="" fill="#000000" transform="translate(0,0)"/>
<path d="" fill="#000000" transform="translate(0,0)"/>
<path d="" fill="#000000" transform="translate(0,0)"/>
<path d="" fill="#000000" transform="translate(0,0)"/>
<path d="" fill="#000000" transform="translate(0,0)"/>
<path d="" fill="#000000" transform="translate(0,0)"/>
<path d="" fill="#000000" transform="translate(0,0)"/>
<path d="" fill="#000000" transform="translate(0,0)"/>
<path d="" fill="#000000" transform="translate(0,0)"/>
<path d="" fill="#000000" transform="translate(0,0)"/>
<path d="" fill="#000000" transform="translate(0,0)"/>
<path d="" fill="#000000" transform="translate(0,0)"/>
<path d="" fill="#000000" transform="translate(0,0)"/>
<path d="" fill="#000000" transform="translate(0,0)"/>
<path d="" fill="#000000" transform="translate(0,0)"/>
<path d="" fill="#000000" transform="translate(0,0)"/>
<path d="" fill="#000000" transform="translate(0,0)"/>
<path d="" fill="#000000" transform="translate(0,0)"/>
<path d="" fill="#000000" transform="translate(0,0)"/>
<path d="" fill="#000000" transform="translate(0,0)"/>
<path d="" fill="#000000" transform="translate(0,0)"/>
<path d="" fill="#000000" transform="translate(0,0)"/>
</svg>
