<?xml version="1.0" encoding="UTF-8"?>
<!DOCTYPE svg PUBLIC "-//W3C//DTD SVG 1.1//EN" "http://www.w3.org/Graphics/SVG/1.1/DTD/svg11.dtd">
<svg xmlns="http://www.w3.org/2000/svg" version="1.1" width="50px" height="50px" style="shape-rendering:geometricPrecision; text-rendering:geometricPrecision; image-rendering:optimizeQuality; fill-rule:evenodd; clip-rule:evenodd" xmlns:xlink="http://www.w3.org/1999/xlink">
<g><path style="opacity:0.687" fill="#000000" d="M 17.5,1.5 C 32.0988,-1.03932 42.0988,4.46068 47.5,18C 46.0563,18.7805 44.723,18.6139 43.5,17.5C 42.7515,15.6675 41.7515,14.0009 40.5,12.5C 38.8333,13.3333 37.1667,14.1667 35.5,15C 36.3366,16.0113 36.67,17.1779 36.5,18.5C 34.6412,18.5391 33.3079,17.7058 32.5,16C 30.1902,15.5034 27.8568,15.3367 25.5,15.5C 24.8333,19.5 24.1667,19.5 23.5,15.5C 21.1432,15.3367 18.8098,15.5034 16.5,16C 15.6921,17.7058 14.3588,18.5391 12.5,18.5C 12.33,17.1779 12.6634,16.0113 13.5,15C 11.8333,14.1667 10.1667,13.3333 8.5,12.5C 7.24848,14.0009 6.24848,15.6675 5.5,17.5C 4.27704,18.6139 2.94371,18.7805 1.5,18C 4.35208,9.98272 9.68541,4.48272 17.5,1.5 Z M 21.5,4.5 C 23.369,6.63528 24.0356,9.30195 23.5,12.5C 21.396,12.7989 19.396,12.4656 17.5,11.5C 18.5923,8.97634 19.9257,6.64301 21.5,4.5 Z M 25.5,4.5 C 28.6341,5.71361 30.6341,8.04694 31.5,11.5C 29.604,12.4656 27.604,12.7989 25.5,12.5C 25.5,9.83333 25.5,7.16667 25.5,4.5 Z M 14.5,6.5 C 15.3251,8.12518 14.9918,9.79184 13.5,11.5C 12.5,11 11.5,10.5 10.5,10C 11.7305,8.59524 13.0639,7.42857 14.5,6.5 Z M 33.5,6.5 C 35.487,7.16418 37.1537,8.33085 38.5,10C 35.2244,11.8795 33.5577,10.7129 33.5,6.5 Z"/></g>
<g><path style="opacity:0.686" fill="#000000" d="M 2.5,20.5 C 4.14297,20.4802 5.4763,21.1468 6.5,22.5C 8.5,19.8333 10.5,19.8333 12.5,22.5C 13.5237,21.1468 14.857,20.4802 16.5,20.5C 16.2437,22.9372 15.5771,25.2706 14.5,27.5C 13.3112,28.4287 11.9778,28.762 10.5,28.5C 9.83333,24.5 9.16667,24.5 8.5,28.5C 6.85613,28.7135 5.35613,28.3802 4,27.5C 3.02304,25.26 2.52304,22.9267 2.5,20.5 Z"/></g>
<g><path style="opacity:0.687" fill="#000000" d="M 17.5,20.5 C 19.143,20.4802 20.4763,21.1468 21.5,22.5C 23.5,19.8333 25.5,19.8333 27.5,22.5C 28.5237,21.1468 29.857,20.4802 31.5,20.5C 31.162,22.854 30.662,25.1873 30,27.5C 28.6439,28.3802 27.1439,28.7135 25.5,28.5C 24.8333,24.5 24.1667,24.5 23.5,28.5C 21.8561,28.7135 20.3561,28.3802 19,27.5C 18.338,25.1873 17.838,22.854 17.5,20.5 Z"/></g>
<g><path style="opacity:0.681" fill="#000000" d="M 32.5,20.5 C 34.143,20.4802 35.4763,21.1468 36.5,22.5C 38.5,19.8333 40.5,19.8333 42.5,22.5C 43.5237,21.1468 44.857,20.4802 46.5,20.5C 46.162,22.854 45.662,25.1873 45,27.5C 43.6439,28.3802 42.1439,28.7135 40.5,28.5C 39.8333,24.5 39.1667,24.5 38.5,28.5C 36.8561,28.7135 35.3561,28.3802 34,27.5C 33.023,25.26 32.523,22.9267 32.5,20.5 Z"/></g>
<g><path style="opacity:0.686" fill="#000000" d="M 1.5,31.5 C 2.70823,30.218 4.04156,30.218 5.5,31.5C 6.24848,33.3325 7.24848,34.9991 8.5,36.5C 10.1667,35.6667 11.8333,34.8333 13.5,34C 12.6634,32.9887 12.33,31.8221 12.5,30.5C 14.3588,30.4609 15.6921,31.2942 16.5,33C 18.8098,33.4966 21.1432,33.6633 23.5,33.5C 24.1667,29.5 24.8333,29.5 25.5,33.5C 27.8568,33.6633 30.1902,33.4966 32.5,33C 33.3079,31.2942 34.6412,30.4609 36.5,30.5C 36.67,31.8221 36.3366,32.9887 35.5,34C 37.1667,34.8333 38.8333,35.6667 40.5,36.5C 41.7515,34.9991 42.7515,33.3325 43.5,31.5C 44.723,30.3861 46.0563,30.2195 47.5,31C 42.1071,44.6994 32.1071,50.0328 17.5,47C 9.64982,44.315 4.31649,39.1483 1.5,31.5 Z M 17.5,36.5 C 19.5,36.5 21.5,36.5 23.5,36.5C 23.0417,46.6654 21.0417,46.6654 17.5,36.5 Z M 25.5,36.5 C 27.604,36.2011 29.604,36.5344 31.5,37.5C 27.2962,46.9641 25.2962,46.6308 25.5,36.5 Z M 12.5,37.5 C 14.5622,38.5046 15.3955,40.1713 15,42.5C 13.2287,41.6959 11.7287,40.5292 10.5,39C 11.4158,38.7216 12.0825,38.2216 12.5,37.5 Z M 34.5,37.5 C 39.3283,38.6793 39.1616,40.3459 34,42.5C 34.0187,40.8925 34.1854,39.2259 34.5,37.5 Z"/></g>
</svg>
